<svg xmlns="http://www.w3.org/2000/svg" width="960" height="600" viewBox="0 0 960 600" role="img" aria-labelledby="title desc">
<title id="title">Tecnologias trabalhando juntas</title><desc id="desc">Ciclo ilustrativo: capturar dados, comparar com o projeto, revisar com a equipe, executar e medir novamente. BIM organiza a informação.</desc>
<rect width="960" height="600" fill="#07182b"/><text x="48" y="65" fill="#6ee7b7" font-family="sans-serif" font-size="20" letter-spacing="3">DA OBRA AO MODELO. DO MODELO À OBRA.</text>
<text x="48" y="112" fill="#fff" font-family="sans-serif" font-size="38" font-weight="700">Dados conectados, decisões melhores.</text>
<g stroke="#6ee7b7" stroke-width="3" fill="none"><path d="M404 230H544L531 218M544 230L531 242M748 284V356L736 343M748 356L760 343M552 418H412L425 406M412 418L425 430M210 364V292L198 305M210 292L222 305"/></g>
<g fill="#12334b" stroke="#40627e" stroke-width="2"><rect x="65" y="175" width="340" height="108" rx="14"/><rect x="554" y="175" width="340" height="108" rx="14"/><rect x="554" y="364" width="340" height="108" rx="14"/><rect x="65" y="364" width="340" height="108" rx="14"/></g>
<g text-anchor="middle" font-family="sans-serif"><g fill="#fff" font-size="27" font-weight="700"><text x="235" y="219">1. Capturar</text><text x="724" y="219">2. Comparar</text><text x="724" y="408">3. Revisar</text><text x="235" y="408">4. Executar</text></g><g fill="#b2c7d8" font-size="21"><text x="235" y="253">Drones, robôs e sensores</text><text x="724" y="253">Análise do realizado × previsto</text><text x="724" y="442">Decisão da equipe técnica</text><text x="235" y="442">Ação e nova medição</text></g><rect x="335" y="299" width="290" height="46" rx="23" fill="#6ee7b7"/><text x="480" y="329" fill="#07182b" font-size="21" font-weight="700">BIM • informação organizada</text></g>
<text x="48" y="552" fill="#90aabd" font-family="sans-serif" font-size="20">Fluxo didático: a integração precisa ser configurada e conferida.</text>
</svg>
